<svg width="17" height="16" viewBox="0 0 17 16" fill="none" xmlns="http://www.w3.org/2000/svg">
<path d="M3.13348 3.66732H10.9935C11.0274 3.66347 11.0617 3.67014 11.0917 3.68642C11.1218 3.70271 11.1461 3.72783 11.1613 3.75839C11.1766 3.78894 11.1821 3.82345 11.1772 3.85724C11.1722 3.89103 11.1569 3.92248 11.1335 3.94732L2.46681 12.614C2.29017 12.8036 2.19401 13.0543 2.19858 13.3133C2.20315 13.5724 2.3081 13.8196 2.49132 14.0028C2.67454 14.186 2.92172 14.291 3.18078 14.2956C3.43985 14.3001 3.69058 14.204 3.88015 14.0273L12.5468 5.36065C12.5713 5.33756 12.602 5.32212 12.6352 5.3162C12.6683 5.31028 12.7025 5.31414 12.7335 5.32732C12.7633 5.34033 12.7886 5.36178 12.8064 5.38903C12.8242 5.41627 12.8336 5.44812 12.8335 5.48065V13.334C12.8335 13.5992 12.9388 13.8536 13.1264 14.0411C13.3139 14.2286 13.5683 14.334 13.8335 14.334C14.0987 14.334 14.3531 14.2286 14.5406 14.0411C14.7281 13.8536 14.8335 13.5992 14.8335 13.334V3.33398C14.8344 3.11202 14.7909 2.89212 14.7054 2.68729C14.6198 2.48246 14.4941 2.29686 14.3356 2.14147C14.1771 1.98608 13.9891 1.86406 13.7826 1.78262C13.5761 1.70117 13.3554 1.66197 13.1335 1.66732H3.13348C2.86826 1.66732 2.61391 1.77267 2.42637 1.96021C2.23884 2.14775 2.13348 2.4021 2.13348 2.66732C2.13348 2.93253 2.23884 3.18689 2.42637 3.37442C2.61391 3.56196 2.86826 3.66732 3.13348 3.66732Z" fill="#fff"/>
</svg>
