<svg width="194" height="48" viewBox="0 0 194 48" fill="none" xmlns="http://www.w3.org/2000/svg">
<path fill-rule="evenodd" clip-rule="evenodd" d="M20.2954 2.8014L17.8414 0.129739C21.5357 -0.358629 31.2834 0.267632 40.7198 6.67962C40.8424 7.56522 40.816 8.448 40.816 8.448L41.0628 8.58503C41.5136 9.20372 42.0312 10.3658 42.34 11.8047C42.648 13.2396 42.734 14.8849 42.3779 16.4517C42.0177 18.0363 41.3337 19.3453 40.6637 20.303C39.9779 21.2831 39.3495 21.8361 39.1506 21.9554L39.0876 21.9933C37.9226 22.2105 36.3134 23.0649 35.6597 25.2153C33.7469 26.4065 30.515 27.711 26.1215 27.711C22.2275 27.711 18.2635 26.5839 15.2918 24.4131C12.3381 22.2553 10.3625 19.071 10.3625 14.8749C10.3625 11.5465 11.8542 8.94291 13.7598 7.01914C15.6805 5.08017 18.3068 3.5117 19.8103 2.99685L20.1828 2.86933L20.1606 2.85034L20.2954 2.8014ZM36.5367 8.03663C35.7938 8.86744 35.0991 9.26605 34.9008 9.37414C30.5627 8.38341 28.9998 5.97387 28.9998 5.97387C33.0917 5.94677 36.7849 6.9917 39.487 8.75935C39.487 8.75935 38.0243 8.25044 36.5367 8.03663Z" fill="#3164FA"/>
<path d="M16.3836 3.25604C7.18164 5.45277 0.25 13.875 0.25 24.0064C0.25 37.1444 11.355 48 25.0538 48C35.283 48 43.7978 41.7456 48.25 33.3776C42.4583 34.7512 35.5678 32.3924 35.2272 27.1811C35.2378 27.1404 35.2482 27.0994 35.2586 27.0578C33.0972 28.1578 30.013 29.121 26.1215 29.121C21.9795 29.121 17.7114 27.9267 14.4601 25.5516C11.1909 23.1635 8.95245 19.5773 8.95245 14.8749C8.95245 11.0846 10.6621 8.14279 12.7581 6.02685L12.7588 6.0261C13.7364 5.04855 15.0003 4.11598 16.1621 3.3923C16.2363 3.34608 16.3102 3.30064 16.3836 3.25604Z" fill="#3164FA"/>
<path d="M9.17745 14.8749C9.17745 11.1583 10.8523 8.27049 12.9179 6.1852C14.1131 4.99001 15.7517 3.85575 17.0976 3.09906C17.0976 3.09906 17.0976 3.09906 17.0976 3.09906C15.7517 3.85575 14.1131 4.99001 12.9179 6.1852C10.8523 8.27049 9.17745 11.1583 9.17745 14.8749Z" fill="#3164FA"/>
<path d="M40.9891 22.1627C41.4123 22.3357 41.671 22.5632 41.8064 22.7067C42.1317 23.0514 42.945 24.0856 41.9691 25.7231C44.0022 25.3784 47.1777 23.31 47.4178 18.0528C47.5773 14.5581 45.7502 12.0079 43.3398 10.1124C43.4852 10.5513 43.6138 11.0202 43.7186 11.5088C44.0587 13.0931 44.1647 14.9518 43.7528 16.7642C43.3449 18.5589 42.5729 20.0338 41.819 21.1113C41.5397 21.5105 41.2568 21.8636 40.9891 22.1627Z" fill="#3164FA"/>
<path d="M138.574 12.3156C142.088 12.3156 144.296 13.3092 146.387 15.0917L144.121 17.8095C142.553 16.4652 140.984 15.647 138.428 15.647C134.711 15.647 131.835 18.9199 131.835 22.8358L131.837 23.0791C131.917 27.1927 134.656 30.1999 138.748 30.1999C140.694 30.1999 142.408 29.5862 143.657 28.6511V24.8521L147.113 21.6961V30.2876C145.08 32.0117 142.233 33.4729 138.632 33.4729C132.271 33.4729 128.088 28.9141 128.088 22.9527L128.09 22.7078C128.183 17.0617 132.483 12.3156 138.574 12.3156ZM161.576 12.3156C167.821 12.3156 172.178 17.0789 172.178 22.8358L172.176 23.0787C172.083 28.7256 167.696 33.4729 161.518 33.4729C155.273 33.4729 150.917 28.7096 150.917 22.9527L150.918 22.7098C151.012 17.0628 155.399 12.3156 161.576 12.3156ZM71.5363 12.5201L80.4822 33.1222L76.8454 33.122L69.8226 16.8159L62.8511 33.122L59.2793 33.1222L68.2251 12.5201H71.5363ZM117.614 12.5201L126.559 33.1222L122.923 33.122L115.9 16.8159L108.928 33.122L105.357 33.1222L114.302 12.5201H117.614ZM179.344 12.6663L190.236 26.8101V12.6663H193.75V33.1222H190.758L179.547 18.5693V33.1222H176.033V12.6663H179.344ZM161.518 15.647C157.481 15.647 154.663 18.8615 154.663 22.8358L154.665 23.0691C154.747 26.9641 157.57 30.1415 161.576 30.1415C165.613 30.1415 168.431 26.927 168.431 22.9527L168.429 22.7193C168.347 18.8244 165.525 15.647 161.518 15.647Z" fill="#3164FA"/>
<path d="M93.871 12.3156C96.4319 12.3156 98.4399 13.0879 99.7495 14.3949C100.826 15.5534 101.437 17.0683 101.437 18.8803L101.437 19.0506C101.395 22.3265 99.4855 24.3252 96.7895 25.181L96.6066 25.237L102.107 33.1087H97.8579L92.8525 25.8608L90.2251 25.8603L92.0688 22.6224L93.6091 22.623C96.1118 22.623 97.7252 21.3464 97.7972 19.2922L97.7997 19.1476L97.7991 19.009C97.7633 16.8029 96.2258 15.6425 93.58 15.6425H88.3709L88.3703 22.0702L88.3675 22.0698V26.7068L88.3703 26.7052L88.3709 33.1087H84.7914V12.3156H93.871Z" fill="#3164FA"/>
</svg>
