<svg width="100%" height="100%" viewBox="0 0 17 17" fill="none" xmlns="http://www.w3.org/2000/svg">
  <g clip-path="url(#clip0_842_836)">
    <path
      d="M16.0968 11.7303L10.4968 1.68069C10.2998 1.32384 10.0107 1.02633 9.65967 0.819151C9.30863 0.611967 8.90845 0.502686 8.50083 0.502686C8.0932 0.502686 7.69303 0.611967 7.34198 0.819151C6.99093 1.02633 6.70184 1.32384 6.50483 1.68069L0.901626 11.7383C0.632475 12.2275 0.495444 12.7783 0.504043 13.3366C0.512642 13.8948 0.666573 14.4412 0.950662 14.9219C1.23475 15.4025 1.63919 15.8008 2.12412 16.0775C2.60904 16.3542 3.1577 16.4998 3.71603 16.4999H13.2808C13.8401 16.4999 14.3897 16.3541 14.8753 16.0769C15.361 15.7996 15.766 15.4005 16.0503 14.9189C16.3347 14.4374 16.4885 13.89 16.4966 13.3308C16.5048 12.7716 16.367 12.22 16.0968 11.7303ZM7.70003 5.29989C7.70003 5.08772 7.78431 4.88424 7.93434 4.73421C8.08437 4.58418 8.28785 4.49989 8.50003 4.49989C8.7122 4.49989 8.91568 4.58418 9.06571 4.73421C9.21574 4.88424 9.30003 5.08772 9.30003 5.29989V8.49989C9.30003 8.71207 9.21574 8.91555 9.06571 9.06558C8.91568 9.21561 8.7122 9.2999 8.50003 9.2999C8.28785 9.2999 8.08437 9.21561 7.93434 9.06558C7.78431 8.91555 7.70003 8.71207 7.70003 8.49989V5.29989ZM8.50003 14.0999C8.18358 14.0999 7.87423 14.0061 7.61111 13.8302C7.348 13.6544 7.14292 13.4045 7.02182 13.1122C6.90072 12.8198 6.86903 12.4981 6.93077 12.1878C6.99251 11.8774 7.14489 11.5923 7.36866 11.3685C7.59242 11.1448 7.87751 10.9924 8.18788 10.9306C8.49825 10.8689 8.81996 10.9006 9.11232 11.0217C9.40468 11.1428 9.65457 11.3479 9.83038 11.611C10.0062 11.8741 10.1 12.1834 10.1 12.4999C10.1 12.9242 9.93145 13.3312 9.6314 13.6313C9.33134 13.9313 8.92437 14.0999 8.50003 14.0999Z"
      fill="var(--svg-color, #FF9F32)" />
  </g>
  <defs>
    <clipPath id="clip0_842_836">
      <rect width="16" height="16" fill="white" transform="translate(0.5 0.5)" />
    </clipPath>
  </defs>
</svg>
